<svg width="16" height="16" viewBox="0 0 16 16" fill="none" xmlns="http://www.w3.org/2000/svg">
<path d="M8.5 3.0004C6.04375 3.0004 3.96563 4.60977 3.25938 6.82852C4.30938 6.29727 5.49375 6.0004 6.75 6.0004H9.5C9.775 6.0004 10 6.2254 10 6.5004C10 6.7754 9.775 7.0004 9.5 7.0004H9H6.75C6.23125 7.0004 5.72812 7.05977 5.24062 7.16915C4.43125 7.35352 3.68125 7.68165 3.00938 8.12852C1.19688 9.3379 0 11.4035 0 13.7504V14.2504C0 14.666 0.334375 15.0004 0.75 15.0004C1.16563 15.0004 1.5 14.666 1.5 14.2504V13.7504C1.5 12.2285 2.14688 10.8598 3.18125 9.9004C3.8 12.2598 5.94688 14.0004 8.5 14.0004H8.53125C12.6594 13.9785 16 9.90977 16 4.89415C16 3.5629 15.7656 2.29727 15.3406 1.15665C15.2594 0.941024 14.9438 0.950399 14.8344 1.15352C14.2469 2.25352 13.0844 3.0004 11.75 3.0004H8.5Z" fill="black"/>
</svg>
