<svg width="16" height="16" viewBox="0 0 16 16" fill="none" xmlns="http://www.w3.org/2000/svg">
<g clip-path="url(#clip0_809_2975)">
<path d="M1.71094 1.67188C1.71094 1.11875 1.26406 0.671875 0.710938 0.671875C0.157812 0.671875 -0.289062 1.11875 -0.289062 1.67188V12.1719C-0.289062 13.5531 0.829687 14.6719 2.21094 14.6719H14.7109C15.2641 14.6719 15.7109 14.225 15.7109 13.6719C15.7109 13.1187 15.2641 12.6719 14.7109 12.6719H2.21094C1.93594 12.6719 1.71094 12.4469 1.71094 12.1719V1.67188ZM14.4172 4.37813C14.8078 3.9875 14.8078 3.35313 14.4172 2.9625C14.0266 2.57188 13.3922 2.57188 13.0016 2.9625L9.71094 6.25625L7.91719 4.4625C7.52656 4.07188 6.89219 4.07188 6.50156 4.4625L3.00156 7.9625C2.61094 8.35312 2.61094 8.9875 3.00156 9.37813C3.39219 9.76875 4.02656 9.76875 4.41719 9.37813L7.21094 6.5875L9.00469 8.38125C9.39531 8.77188 10.0297 8.77188 10.4203 8.38125L14.4203 4.38125L14.4172 4.37813Z" fill="black"/>
</g>
<defs>
<clipPath id="clip0_809_2975">
<rect width="16" height="16" fill="white"/>
</clipPath>
</defs>
</svg>
