<svg width="16" height="16" viewBox="0 0 16 16" fill="none" xmlns="http://www.w3.org/2000/svg">
<g clip-path="url(#clip0_809_2981)">
<path d="M0 7C0 8.65625 1.34375 10 3 10H4.475L9.0625 6.32812C9.6125 5.8875 10.3938 5.89062 10.9438 6.33437C11.4938 6.77812 11.6562 7.54062 11.3438 8.17188L10.4281 10H11H13C14.6562 10 16 8.65625 16 7C16 5.34375 14.6562 4 13 4C12.9844 4 12.9656 4 12.95 4C12.9844 3.8375 13 3.67188 13 3.5C13 2.11875 11.8813 1 10.5 1C9.74063 1 9.05938 1.34062 8.6 1.875C8.01563 0.759375 6.84687 0 5.5 0C3.56562 0 2 1.56562 2 3.5C2 3.72187 2.02188 3.94063 2.05938 4.15C0.8625 4.54375 0 5.67188 0 7ZM10.3156 7.1125C10.1344 6.96563 9.87188 6.96563 9.6875 7.10938L4.6875 11.1094C4.52187 11.2406 4.45625 11.4656 4.52812 11.6656C4.6 11.8656 4.7875 12 5 12H7.19063L5.55312 15.275C5.44687 15.4844 5.50312 15.7406 5.6875 15.8875C5.87188 16.0344 6.13125 16.0344 6.31563 15.8906L11.3156 11.8906C11.4813 11.7594 11.5469 11.5344 11.475 11.3344C11.4031 11.1344 11.2156 11 11.0031 11H8.8125L10.45 7.725C10.5562 7.51562 10.5 7.25938 10.3188 7.1125H10.3156Z" fill="black"/>
</g>
<defs>
<clipPath id="clip0_809_2981">
<rect width="16" height="16" fill="white"/>
</clipPath>
</defs>
</svg>
