<svg width="16" height="17" viewBox="0 0 16 17" fill="none" xmlns="http://www.w3.org/2000/svg">
<g clip-path="url(#clip0_809_6945)">
<g clip-path="url(#clip1_809_6945)">
<path d="M16 8C16 11.5906 12.4187 14.5 7.99995 14.5C6.84058 14.5 5.74057 14.3 4.74682 13.9406C4.37495 14.2125 3.7687 14.5844 3.04995 14.8969C2.29995 15.2219 1.39683 15.5 0.49995 15.5C0.296825 15.5 0.115575 15.3781 0.0374502 15.1906C-0.0406748 15.0031 0.00307515 14.7906 0.1437 14.6469L0.153075 14.6375C0.16245 14.6281 0.17495 14.6156 0.1937 14.5938C0.228075 14.5562 0.2812 14.4969 0.346825 14.4156C0.47495 14.2594 0.646825 14.0281 0.821825 13.7406C1.13433 13.2219 1.4312 12.5406 1.49058 11.775C0.553075 10.7125 -4.98406e-05 9.40937 -4.98406e-05 8C-4.98406e-05 4.40937 3.5812 1.5 7.99995 1.5C12.4187 1.5 16 4.40937 16 8Z" fill="black"/>
</g>
</g>
<defs>
<clipPath id="clip0_809_6945">
<rect width="16" height="16" fill="white" transform="translate(0 0.5)"/>
</clipPath>
<clipPath id="clip1_809_6945">
<rect width="16" height="16" fill="white" transform="translate(0 0.5)"/>
</clipPath>
</defs>
</svg>
