<svg width="16" height="16" viewBox="0 0 16 16" fill="none" xmlns="http://www.w3.org/2000/svg">
<path d="M7.85452 0.0140625C7.95139 -0.0046875 8.05139 -0.0046875 8.14827 0.0140625L14.3983 1.26406C14.7483 1.33281 15.0014 1.64219 15.0014 1.99844C15.0014 2.35469 14.7483 2.66406 14.3983 2.73281L12.0014 3.21406V4.99844C12.0014 7.20781 10.2108 8.99844 8.00139 8.99844C5.79202 8.99844 4.00139 7.20781 4.00139 4.99844V3.21406L2.50139 2.91406V4.94844L2.99202 7.39844C3.02014 7.54531 2.98264 7.69844 2.88889 7.81406C2.79514 7.92969 2.65139 7.99844 2.50139 7.99844H1.50139C1.35139 7.99844 1.21077 7.93281 1.11389 7.81406C1.01702 7.69531 0.979516 7.54531 1.01077 7.39844L1.50139 4.94844V2.70469C1.20452 2.60156 1.00139 2.32031 1.00139 1.99844C1.00139 1.64219 1.25452 1.33281 1.60452 1.26406L7.85452 0.0140625ZM4.49827 10.2391C4.82639 10.1328 5.17952 10.2516 5.41702 10.5047L7.63577 12.8641C7.83264 13.0734 8.16702 13.0734 8.36389 12.8641L10.5826 10.5047C10.8201 10.2516 11.1733 10.1328 11.5014 10.2391C13.5326 10.8922 15.0014 12.7922 15.0014 15.0391C15.0014 15.5703 14.5701 15.9984 14.042 15.9984H1.96077C1.43264 15.9984 1.00139 15.5672 1.00139 15.0391C1.00139 12.7922 2.47014 10.8922 4.49827 10.2391Z" fill="black"/>
</svg>
