<svg width="16" height="16" viewBox="0 0 16 16" fill="none" xmlns="http://www.w3.org/2000/svg">
<path d="M2.78906 1.05273C2.30868 1.05273 1.92057 1.44084 1.92057 1.92122V4.52669H3.65755V1.92122C3.65755 1.44084 3.26945 1.05273 2.78906 1.05273ZM8 1.05273C7.51962 1.05273 7.13151 1.44084 7.13151 1.92122V4.52669H8.86849V1.92122C8.86849 1.44084 8.48038 1.05273 8 1.05273ZM1.05208 5.39518C0.5717 5.39518 0.183594 5.78329 0.183594 6.26367C0.183594 6.74406 0.5717 7.13216 1.05208 7.13216V8.00065C1.05208 10.1013 2.5448 11.8546 4.52604 12.2562V14.0801C4.52604 14.5605 4.91415 14.9486 5.39453 14.9486C5.87491 14.9486 6.26302 14.5605 6.26302 14.0801V12.2562C6.59685 12.1884 6.9171 12.0826 7.21565 11.9441C7.15865 11.651 7.13151 11.3498 7.13151 11.0404C7.13151 8.861 8.59166 7.0236 10.5865 6.44823C10.6 6.38852 10.6055 6.32609 10.6055 6.26367C10.6055 5.78329 10.2174 5.39518 9.73698 5.39518H1.05208ZM11.9082 14.9486C12.9447 14.9486 13.9388 14.5368 14.6717 13.8039C15.4046 13.071 15.8164 12.0769 15.8164 11.0404C15.8164 10.0038 15.4046 9.00978 14.6717 8.27685C13.9388 7.54392 12.9447 7.13216 11.9082 7.13216C10.8717 7.13216 9.87762 7.54392 9.14469 8.27685C8.41176 9.00978 8 10.0038 8 11.0404C8 12.0769 8.41176 13.071 9.14469 13.8039C9.87762 14.5368 10.8717 14.9486 11.9082 14.9486ZM13.2082 8.842C13.3249 8.94242 13.3548 9.11069 13.2788 9.24639L12.4619 10.7147H13.4281C13.5692 10.7147 13.694 10.8042 13.7375 10.9372C13.7809 11.0702 13.7347 11.2168 13.6235 11.3009L11.018 13.255C10.8959 13.3473 10.7249 13.3419 10.6082 13.2387C10.4915 13.1356 10.4616 12.97 10.5376 12.8343L11.3545 11.366H10.3883C10.2472 11.366 10.1224 11.2765 10.0789 11.1435C10.0355 11.0105 10.0817 10.864 10.1929 10.7798L12.7984 8.82572C12.9205 8.73344 13.0915 8.73887 13.2082 8.842Z" fill="black"/>
</svg>
