<svg width="16" height="16" viewBox="0 0 16 16" fill="none" xmlns="http://www.w3.org/2000/svg">
<g clip-path="url(#clip0_809_2999)">
<path d="M3.1875 3.875C2.4291 3.875 1.8125 4.4916 1.8125 5.25V10.75C1.8125 11.5084 2.4291 12.125 3.1875 12.125H12.8125C13.5709 12.125 14.1875 11.5084 14.1875 10.75V5.25C14.1875 4.4916 13.5709 3.875 12.8125 3.875H3.1875ZM4.5625 10.75H3.1875V9.375C3.9459 9.375 4.5625 9.9916 4.5625 10.75ZM3.1875 6.625V5.25H4.5625C4.5625 6.0084 3.9459 6.625 3.1875 6.625ZM11.4375 10.75C11.4375 9.9916 12.0541 9.375 12.8125 9.375V10.75H11.4375ZM12.8125 6.625C12.0541 6.625 11.4375 6.0084 11.4375 5.25H12.8125V6.625ZM8 5.9375C8.54701 5.9375 9.07161 6.1548 9.45841 6.54159C9.8452 6.92839 10.0625 7.45299 10.0625 8C10.0625 8.54701 9.8452 9.07161 9.45841 9.45841C9.07161 9.8452 8.54701 10.0625 8 10.0625C7.45299 10.0625 6.92839 9.8452 6.54159 9.45841C6.1548 9.07161 5.9375 8.54701 5.9375 8C5.9375 7.45299 6.1548 6.92839 6.54159 6.54159C6.92839 6.1548 7.45299 5.9375 8 5.9375Z" fill="black"/>
</g>
<defs>
<clipPath id="clip0_809_2999">
<rect width="12.375" height="11" fill="white" transform="translate(1.8125 2.5)"/>
</clipPath>
</defs>
</svg>
