<svg width="16" height="16" viewBox="0 0 16 16" fill="none" xmlns="http://www.w3.org/2000/svg">
<g clip-path="url(#clip0_809_3006)">
<path d="M8.95625 1.35078L8.95312 1.50078H11C12.6562 1.50078 14 2.84453 14 4.50078C14 6.15703 12.6562 7.50078 11 7.50078H9.75V5.00078H11C11.275 5.00078 11.5 4.77578 11.5 4.50078C11.5 4.22578 11.275 4.00078 11 4.00078H9.75H8.875L8.73438 8.50078H10C11.6562 8.50078 13 9.84453 13 11.5008C13 13.157 11.6562 14.5008 10 14.5008H9.5V12.0008H10C10.275 12.0008 10.5 11.7758 10.5 11.5008C10.5 11.2258 10.275 11.0008 10 11.0008H8.65625L8.55937 14.1102L8.51562 15.4695V15.5008C8.50625 15.7789 8.27812 16.0008 8 16.0008C7.72188 16.0008 7.49375 15.7789 7.48438 15.5008V15.4695L7.45312 14.5008H6.25C5.55937 14.5008 5 13.9414 5 13.2508C5 12.5602 5.55937 12.0008 6.25 12.0008H7.375L7.34375 11.0008H6.75C5.09375 11.0008 3.75 9.65703 3.75 8.00078C3.75 6.51328 4.83125 5.27891 6.25 5.04141V8.00078C6.25 8.27578 6.475 8.50078 6.75 8.50078H7.26562L7.125 4.00078H6.25H5.83125C5.55 4.59141 4.94687 5.00078 4.25 5.00078H3.75C2.78438 5.00078 2 4.21641 2 3.25078C2 2.28516 2.78438 1.50078 3.75 1.50078H4H4.25H7.04688L7.04375 1.35078L7.03125 1.00078C7.03125 0.978906 7.03125 0.960156 7.03125 0.941406C7.04688 0.422656 7.47188 0.00390625 8 0.00390625C8.52812 0.00390625 8.95312 0.422656 8.96875 0.941406C8.96875 0.960156 8.96875 0.982031 8.96875 1.00078L8.95625 1.35078ZM4 3.50078C4.13261 3.50078 4.25979 3.4481 4.35355 3.35433C4.44732 3.26057 4.5 3.13339 4.5 3.00078C4.5 2.86817 4.44732 2.741 4.35355 2.64723C4.25979 2.55346 4.13261 2.50078 4 2.50078C3.86739 2.50078 3.74021 2.55346 3.64645 2.64723C3.55268 2.741 3.5 2.86817 3.5 3.00078C3.5 3.13339 3.55268 3.26057 3.64645 3.35433C3.74021 3.4481 3.86739 3.50078 4 3.50078Z" fill="black"/>
</g>
<defs>
<clipPath id="clip0_809_3006">
<rect width="16" height="16" fill="white"/>
</clipPath>
</defs>
</svg>
