<svg width="16" height="16" viewBox="0 0 16 16" fill="none" xmlns="http://www.w3.org/2000/svg">
<path d="M11.8094 3.04901C11.8094 2.41811 11.2976 1.90625 10.6667 1.90625H8.38116C7.75027 1.90625 7.2384 2.41811 7.2384 3.04901V4.19177H5.71472V2.47763C5.71472 2.16099 5.45998 1.90625 5.14334 1.90625C4.8267 1.90625 4.57196 2.16099 4.57196 2.47763V4.19177H3.04828V2.47763C3.04828 2.16099 2.79354 1.90625 2.4769 1.90625C2.16026 1.90625 1.90552 2.16099 1.90552 2.47763V4.19177H1.5246C0.893698 4.19177 0.381836 4.70363 0.381836 5.33453V7.62006V12.9529C0.381836 13.5838 0.893698 14.0957 1.5246 14.0957H7.61932H8.38116H10.6667H14.4759C15.1068 14.0957 15.6187 13.5838 15.6187 12.9529V7.62006C15.6187 6.98916 15.1068 6.47729 14.4759 6.47729H11.8094V3.04901ZM14.095 10.6674V11.4293C14.095 11.6388 13.9236 11.8102 13.7141 11.8102H12.9522C12.7427 11.8102 12.5713 11.6388 12.5713 11.4293V10.6674C12.5713 10.4579 12.7427 10.2865 12.9522 10.2865H13.7141C13.9236 10.2865 14.095 10.4579 14.095 10.6674ZM6.09564 11.8102H5.3338C5.1243 11.8102 4.95288 11.6388 4.95288 11.4293V10.6674C4.95288 10.4579 5.1243 10.2865 5.3338 10.2865H6.09564C6.30515 10.2865 6.47656 10.4579 6.47656 10.6674V11.4293C6.47656 11.6388 6.30515 11.8102 6.09564 11.8102ZM3.4292 11.4293C3.4292 11.6388 3.25779 11.8102 3.04828 11.8102H2.28644C2.07693 11.8102 1.90552 11.6388 1.90552 11.4293V10.6674C1.90552 10.4579 2.07693 10.2865 2.28644 10.2865H3.04828C3.25779 10.2865 3.4292 10.4579 3.4292 10.6674V11.4293ZM13.7141 8.00098C13.9236 8.00098 14.095 8.17239 14.095 8.3819V9.14374C14.095 9.35324 13.9236 9.52466 13.7141 9.52466H12.9522C12.7427 9.52466 12.5713 9.35324 12.5713 9.14374V8.3819C12.5713 8.17239 12.7427 8.00098 12.9522 8.00098H13.7141ZM6.47656 6.09637V6.85822C6.47656 7.06772 6.30515 7.23914 6.09564 7.23914H5.3338C5.1243 7.23914 4.95288 7.06772 4.95288 6.85822V6.09637C4.95288 5.88687 5.1243 5.71545 5.3338 5.71545H6.09564C6.30515 5.71545 6.47656 5.88687 6.47656 6.09637ZM3.04828 5.71545C3.25779 5.71545 3.4292 5.88687 3.4292 6.09637V6.85822C3.4292 7.06772 3.25779 7.23914 3.04828 7.23914H2.28644C2.07693 7.23914 1.90552 7.06772 1.90552 6.85822V6.09637C1.90552 5.88687 2.07693 5.71545 2.28644 5.71545H3.04828ZM6.47656 9.14374C6.47656 9.35324 6.30515 9.52466 6.09564 9.52466H5.3338C5.1243 9.52466 4.95288 9.35324 4.95288 9.14374V8.3819C4.95288 8.17239 5.1243 8.00098 5.3338 8.00098H6.09564C6.30515 8.00098 6.47656 8.17239 6.47656 8.3819V9.14374ZM3.04828 9.52466H2.28644C2.07693 9.52466 1.90552 9.35324 1.90552 9.14374V8.3819C1.90552 8.17239 2.07693 8.00098 2.28644 8.00098H3.04828C3.25779 8.00098 3.4292 8.17239 3.4292 8.3819V9.14374C3.4292 9.35324 3.25779 9.52466 3.04828 9.52466ZM10.2858 8.3819V9.14374C10.2858 9.35324 10.1144 9.52466 9.90485 9.52466H9.14301C8.9335 9.52466 8.76208 9.35324 8.76208 9.14374V8.3819C8.76208 8.17239 8.9335 8.00098 9.14301 8.00098H9.90485C10.1144 8.00098 10.2858 8.17239 10.2858 8.3819ZM9.90485 3.42993C10.1144 3.42993 10.2858 3.60135 10.2858 3.81085V4.57269C10.2858 4.7822 10.1144 4.95361 9.90485 4.95361H9.14301C8.9335 4.95361 8.76208 4.7822 8.76208 4.57269V3.81085C8.76208 3.60135 8.9335 3.42993 9.14301 3.42993H9.90485ZM10.2858 6.09637V6.85822C10.2858 7.06772 10.1144 7.23914 9.90485 7.23914H9.14301C8.9335 7.23914 8.76208 7.06772 8.76208 6.85822V6.09637C8.76208 5.88687 8.9335 5.71545 9.14301 5.71545H9.90485C10.1144 5.71545 10.2858 5.88687 10.2858 6.09637Z" fill="black"/>
</svg>
