<svg width="16" height="16" viewBox="0 0 16 16" fill="none" xmlns="http://www.w3.org/2000/svg">
<g clip-path="url(#clip0_809_3012)">
<path d="M8.49687 0.13125C8.19062 -0.04375 7.8125 -0.04375 7.50313 0.13125L0.503125 4.13125C0.19375 4.30937 0 4.64062 0 5V15C0 15.5531 0.446875 16 1 16C1.55313 16 2 15.5531 2 15V5.58125L8 2.15313L14 5.58125V15C14 15.5531 14.4469 16 15 16C15.5531 16 16 15.5531 16 15V5C16 4.64062 15.8062 4.30937 15.4969 4.13125L8.49687 0.13125ZM8 6.5C8.33152 6.5 8.64946 6.3683 8.88388 6.13388C9.1183 5.89946 9.25 5.58152 9.25 5.25C9.25 4.91848 9.1183 4.60054 8.88388 4.36612C8.64946 4.1317 8.33152 4 8 4C7.66848 4 7.35054 4.1317 7.11612 4.36612C6.8817 4.60054 6.75 4.91848 6.75 5.25C6.75 5.58152 6.8817 5.89946 7.11612 6.13388C7.35054 6.3683 7.66848 6.5 8 6.5ZM7.75 15.25V12.5H8.25V15.25C8.25 15.6656 8.58437 16 9 16C9.41563 16 9.75 15.6656 9.75 15.25V9.79688L10.5906 11.3562C10.7875 11.7219 11.2406 11.8563 11.6062 11.6625C11.9719 11.4688 12.1063 11.0125 11.9125 10.6469L10.7281 8.45C10.25 7.55937 9.31875 7.00313 8.30625 7.00313H7.69688C6.68438 7.00313 5.75625 7.55937 5.275 8.45L4.09062 10.6469C3.89375 11.0125 4.03125 11.4656 4.39687 11.6625C4.7625 11.8594 5.21562 11.7219 5.4125 11.3562L6.25 9.79688V15.25C6.25 15.6656 6.58437 16 7 16C7.41563 16 7.75 15.6656 7.75 15.25Z" fill="black"/>
</g>
<defs>
<clipPath id="clip0_809_3012">
<rect width="16" height="16" fill="white"/>
</clipPath>
</defs>
</svg>
