<svg width="16" height="16" viewBox="0 0 16 16" fill="none" xmlns="http://www.w3.org/2000/svg">
<g clip-path="url(#clip0_809_3018)">
<path d="M16.0233 8.31408C16.0233 8.79785 15.6201 9.1768 15.1633 9.1768H14.3032L14.322 13.4823C14.3274 14.4364 13.5561 15.2105 12.602 15.2105H9.32041L8.28838 13.4877L10.46 11.679C10.6696 11.5043 10.6642 11.1791 10.4492 11.0097L7.28322 8.52102C6.89083 8.21195 6.37481 8.70916 6.67044 9.1123L8.28838 11.3376L5.99048 13.2512C5.82654 13.3856 5.78891 13.6221 5.89641 13.8022L6.74032 15.2078H3.99091C3.04218 15.2078 2.27084 14.4364 2.27084 13.4877V9.1768H1.41081C0.927045 9.1768 0.550781 8.80053 0.550781 8.31408C0.550781 8.0722 0.631409 7.85719 0.819541 7.66906L7.70786 1.66227C7.89599 1.47414 8.111 1.44727 8.29913 1.44727C8.48726 1.44727 8.70227 1.50102 8.86352 1.6354L11.7285 4.15368V3.16733C11.7285 2.69162 12.1128 2.3073 12.5885 2.3073H13.4486C13.9243 2.3073 14.3086 2.69162 14.3086 3.16733V6.41932L15.7276 7.66637C15.9427 7.8545 16.0502 8.06951 16.0233 8.31139V8.31408Z" fill="black"/>
</g>
<defs>
<clipPath id="clip0_809_3018">
<rect width="16" height="16" fill="white"/>
</clipPath>
</defs>
</svg>
