<svg width="16" height="16" viewBox="0 0 16 16" fill="none" xmlns="http://www.w3.org/2000/svg">
<g clip-path="url(#clip0_809_3031)">
<path d="M2.95234 2.46075C2.54539 2.3251 2.32738 1.88666 2.46303 1.47971C2.59868 1.07276 3.03712 0.854748 3.44408 0.990398L6.18131 1.90362C6.51559 1.33195 7.13813 0.949219 7.84788 0.949219C8.91855 0.949219 9.78574 1.81641 9.78574 2.88708C9.78574 2.95975 9.7809 3.03 9.77363 3.10025L12.7434 4.09098C13.1504 4.22663 13.3684 4.66508 13.2327 5.07203C13.0971 5.47898 12.6586 5.69699 12.2517 5.56134L8.97184 4.46645C8.86283 4.54396 8.74656 4.60936 8.62302 4.66508V12.5764C8.62302 13.0052 8.27663 13.3516 7.84788 13.3516H3.197C2.76825 13.3516 2.42185 13.0052 2.42185 12.5764C2.42185 12.1477 2.76825 11.8013 3.197 11.8013H7.07273V4.66265C6.56404 4.4398 6.17162 4.00863 6.00206 3.47571L2.95234 2.45833V2.46075ZM4.95077 7.92554L3.197 4.917L1.44323 7.92554H4.95319H4.95077ZM3.197 10.251C1.67335 10.251 0.40647 9.42738 0.144858 8.33976C0.0818778 8.0733 0.169082 7.79958 0.307155 7.56219L2.61322 3.60894C2.73433 3.40062 2.95719 3.27466 3.197 3.27466C3.43681 3.27466 3.65966 3.40304 3.78078 3.60894L6.08684 7.56219C6.22491 7.79958 6.31212 8.0733 6.24914 8.33976C5.98753 9.42738 4.72065 10.251 3.197 10.251ZM12.4697 8.01759L10.7159 11.0261H14.2259L12.4697 8.01759ZM15.5218 11.4403C15.2602 12.528 13.9933 13.3516 12.4697 13.3516C10.946 13.3516 9.67916 12.528 9.41755 11.4403C9.35457 11.1739 9.44177 10.9002 9.57984 10.6628L11.8859 6.70953C12.007 6.50121 12.2299 6.37524 12.4697 6.37524C12.7095 6.37524 12.9324 6.50363 13.0535 6.70953L15.3595 10.6628C15.4976 10.9002 15.5848 11.1739 15.5218 11.4403Z" fill="black"/>
</g>
<defs>
<clipPath id="clip0_809_3031">
<rect width="16" height="16" fill="white"/>
</clipPath>
</defs>
</svg>
