<svg width="16" height="16" viewBox="0 0 16 16" fill="none" xmlns="http://www.w3.org/2000/svg">
<path d="M6.1418 3.04531H9.85781C9.97136 3.04531 10.0643 3.13821 10.0643 3.25176V4.28398H5.93535V3.25176C5.93535 3.13821 6.02825 3.04531 6.1418 3.04531ZM4.69668 3.25176V4.28398H3.04512C2.13418 4.28398 1.39355 5.02461 1.39355 5.93555V8.41289H6.34824H9.65137H14.6061V5.93555C14.6061 5.02461 13.8654 4.28398 12.9545 4.28398H11.3029V3.25176C11.3029 2.45436 10.6552 1.80664 9.85781 1.80664H6.1418C5.3444 1.80664 4.69668 2.45436 4.69668 3.25176ZM14.6061 9.23867H9.65137V10.0645C9.65137 10.5212 9.28235 10.8902 8.82559 10.8902H7.17402C6.71726 10.8902 6.34824 10.5212 6.34824 10.0645V9.23867H1.39355V12.5418C1.39355 13.4527 2.13418 14.1934 3.04512 14.1934H12.9545C13.8654 14.1934 14.6061 13.4527 14.6061 12.5418V9.23867Z" fill="black"/>
</svg>
