<svg width="16" height="16" viewBox="0 0 16 16" fill="none" xmlns="http://www.w3.org/2000/svg">
<g clip-path="url(#clip0_809_3051)">
<path d="M5.57806 7.54401C6.407 7.54401 7.20198 7.21471 7.78813 6.62856C8.37428 6.04241 8.70357 5.24743 8.70357 4.41849C8.70357 3.58955 8.37428 2.79456 7.78813 2.20841C7.20198 1.62226 6.407 1.29297 5.57806 1.29297C4.74912 1.29297 3.95413 1.62226 3.36798 2.20841C2.78183 2.79456 2.45254 3.58955 2.45254 4.41849C2.45254 5.24743 2.78183 6.04241 3.36798 6.62856C3.95413 7.21471 4.74912 7.54401 5.57806 7.54401ZM4.46215 8.71608C2.05696 8.71608 0.108398 10.6646 0.108398 13.0698C0.108398 13.4703 0.433159 13.795 0.833616 13.795H10.3225C10.3664 13.795 10.408 13.7902 10.4519 13.7828C8.58881 12.4374 8.01498 10.3399 7.9344 8.89433C7.54127 8.77712 7.12616 8.71608 6.69641 8.71608H4.46459H4.46215ZM12.0025 6.80414L9.07229 7.97621C8.85008 8.06655 8.70357 8.28143 8.70357 8.52073C8.70357 10.0664 9.336 12.6425 11.9951 13.7511C12.1392 13.8121 12.3028 13.8121 12.4469 13.7511C15.1036 12.6425 15.736 10.0664 15.736 8.52073C15.736 8.28143 15.5895 8.06655 15.3673 7.97621L12.4371 6.80414C12.2979 6.74798 12.1416 6.74798 12.0025 6.80414ZM14.5493 8.91142C14.454 10.1494 13.8851 11.761 12.2198 12.5668V7.98109L14.5493 8.91142Z" fill="black"/>
</g>
<defs>
<clipPath id="clip0_809_3051">
<rect width="16" height="16" fill="white"/>
</clipPath>
</defs>
</svg>
