<svg width="16" height="16" viewBox="0 0 16 16" fill="none" xmlns="http://www.w3.org/2000/svg">
<g clip-path="url(#clip0_809_3044)">
<g clip-path="url(#clip1_809_3044)">
<path d="M8.2894 0.839844C8.42468 0.839844 8.55996 0.869252 8.68347 0.925127L14.221 3.27484C14.868 3.54833 15.3503 4.18649 15.3474 4.95698C15.3326 7.87426 14.1328 13.2118 9.06578 15.638C8.57466 15.8733 8.00415 15.8733 7.51303 15.638C2.44601 13.2118 1.24616 7.87426 1.23146 4.95698C1.22852 4.18649 1.71081 3.54833 2.35779 3.27484L7.89828 0.925127C8.01885 0.869252 8.15413 0.839844 8.2894 0.839844ZM8.2894 2.80431V13.9235C12.3477 11.9561 13.4388 7.60665 13.4652 4.99815L8.2894 2.80431Z" fill="black"/>
</g>
</g>
<defs>
<clipPath id="clip0_809_3044">
<rect width="16" height="16" fill="white"/>
</clipPath>
<clipPath id="clip1_809_3044">
<rect width="18" height="16" fill="white" transform="translate(-0.710938 0.328125)"/>
</clipPath>
</defs>
</svg>
