<svg width="16" height="16" viewBox="0 0 16 16" fill="none" xmlns="http://www.w3.org/2000/svg">
<g clip-path="url(#clip0_809_7752)">
<path d="M10 0H6H5C4.44687 0 4 0.446875 4 1C4 1.55313 4.44687 2 5 2V6.15C5 6.51875 4.89687 6.88438 4.70312 7.19688L1.32188 12.6938C1.1125 13.0375 1 13.4281 1 13.8313C1 15.0281 1.97188 16 3.16875 16H12.8313C14.0281 16 15 15.0281 15 13.8313C15 13.4313 14.8875 13.0375 14.6781 12.6938L11.2969 7.2C11.1031 6.88437 11 6.52187 11 6.15312V2C11.5531 2 12 1.55313 12 1C12 0.446875 11.5531 0 11 0H10ZM7 6.15V2H9V6.15C9 6.89063 9.20625 7.61562 9.59375 8.24687L10.6719 10H5.32812L6.40625 8.24687C6.79375 7.61562 7 6.89063 7 6.15Z" fill="black"/>
</g>
<defs>
<clipPath id="clip0_809_7752">
<rect width="14" height="16" fill="white" transform="translate(1)"/>
</clipPath>
</defs>
</svg>
