<svg width="16" height="16" viewBox="0 0 16 16" fill="none" xmlns="http://www.w3.org/2000/svg">
<g clip-path="url(#clip0_809_3058)">
<path d="M13.7844 8.15419V8.23515L15.4944 6.52519C16.0317 5.98791 16.0317 5.11944 15.4944 4.58217L13.5783 2.66858C13.0411 2.13131 12.1726 2.13131 11.6353 2.66858L10.6515 3.65236C10.5853 3.645 10.5166 3.64009 10.4479 3.64009H7.70021C6.79003 3.64009 6.04177 4.32702 5.94363 5.21021H5.93382V8.15419C5.93382 8.69637 6.37296 9.13551 6.91515 9.13551C7.45733 9.13551 7.89647 8.69637 7.89647 8.15419V6.3878V6.38535V5.99527H8.289H11.6255C11.6255 5.99527 11.6255 5.99527 11.628 5.99527H11.8218C12.9061 5.99527 13.7844 6.87356 13.7844 7.95792V8.15419ZM8.68153 6.78033V8.15419C8.68153 9.13061 7.89156 9.92057 6.91515 9.92057C5.93873 9.92057 5.14876 9.13061 5.14876 8.15419V5.24456C4.26802 5.39667 3.53448 6.03698 3.28424 6.91772L2.87945 8.33083L1.08362 10.1267C0.546345 10.6639 0.546345 11.5324 1.08362 12.0697L2.99966 13.9857C3.53693 14.523 4.40541 14.523 4.94268 13.9857L5.86758 13.0608C5.88966 13.0608 5.91174 13.0633 5.93382 13.0633H9.85912C10.5093 13.0633 11.0367 12.5358 11.0367 11.8857C11.0367 11.7483 11.0122 11.6158 10.9705 11.4931H11.0367C11.6868 11.4931 12.2143 10.9657 12.2143 10.3156C12.2143 10.0015 12.0916 9.71695 11.8905 9.50597C12.521 9.3833 12.9969 8.82885 12.9994 8.16155V8.15174C12.9969 7.39612 12.3836 6.78279 11.6255 6.78279H8.68153V6.78033Z" fill="black"/>
</g>
<defs>
<clipPath id="clip0_809_3058">
<rect width="16" height="16" fill="white"/>
</clipPath>
</defs>
</svg>
