<svg width="16" height="16" viewBox="0 0 16 16" fill="none" xmlns="http://www.w3.org/2000/svg">
<g clip-path="url(#clip0_809_8201)">
<g clip-path="url(#clip1_809_8201)">
<path d="M9.95664 0.292969C9.56602 -0.0976562 8.93164 -0.0976562 8.54102 0.292969L4.79102 4.04297C4.40039 4.43359 4.40039 5.06797 4.79102 5.45859L5.29102 5.95859C5.68164 6.34922 6.31602 6.34922 6.70664 5.95859L6.83164 5.83359L10.1691 9.16797L10.0441 9.29297C9.65352 9.68359 9.65352 10.318 10.0441 10.7086L10.5441 11.2086C10.9348 11.5992 11.5691 11.5992 11.9598 11.2086L15.7098 7.45859C16.1004 7.06797 16.1004 6.43359 15.7098 6.04297L15.2098 5.54297C14.8191 5.15234 14.1848 5.15234 13.7941 5.54297L13.6691 5.66797L10.3316 2.33047L10.4566 2.20547C10.8473 1.81484 10.8473 1.18047 10.4566 0.789844L9.95664 0.289844V0.292969ZM5.20664 9.29297C4.81602 8.90234 4.18164 8.90234 3.79102 9.29297L0.291016 12.793C-0.0996094 13.1836 -0.0996094 13.818 0.291016 14.2086L1.79102 15.7086C2.18164 16.0992 2.81602 16.0992 3.20664 15.7086L6.70664 12.2086C7.09727 11.818 7.09727 11.1836 6.70664 10.793L6.66289 10.7492L8.50039 8.91484L7.08477 7.49922L5.25039 9.33359L5.20664 9.28984V9.29297Z" fill="black"/>
</g>
</g>
<defs>
<clipPath id="clip0_809_8201">
<rect width="16" height="16" fill="white"/>
</clipPath>
<clipPath id="clip1_809_8201">
<rect width="16" height="16" fill="white"/>
</clipPath>
</defs>
</svg>
