<svg width="16" height="16" viewBox="0 0 16 16" fill="none" xmlns="http://www.w3.org/2000/svg">
<g clip-path="url(#clip0_809_3065)">
<g clip-path="url(#clip1_809_3065)">
<path d="M9.22557 0.835938C9.47394 0.835938 9.71215 0.934605 9.88778 1.11023C10.0634 1.28586 10.1621 1.52407 10.1621 1.77244C10.1621 2.02082 10.0634 2.25902 9.88778 2.43465C9.71215 2.61028 9.47394 2.70895 9.22557 2.70895C8.97719 2.70895 8.73899 2.61028 8.56336 2.43465C8.38773 2.25902 8.28906 2.02082 8.28906 1.77244C8.28906 1.52407 8.38773 1.28586 8.56336 1.11023C8.73899 0.934605 8.97719 0.835938 9.22557 0.835938ZM5.47955 2.47482C5.47955 2.22644 5.57822 1.98824 5.75384 1.81261C5.92947 1.63698 6.16768 1.53832 6.41605 1.53832C6.66443 1.53832 6.90263 1.63698 7.07826 1.81261C7.25389 1.98824 7.35256 2.22644 7.35256 2.47482C7.35256 2.7232 7.25389 2.9614 7.07826 3.13703C6.90263 3.31266 6.66443 3.41133 6.41605 3.41133C6.16768 3.41133 5.92947 3.31266 5.75384 3.13703C5.57822 2.9614 5.47955 2.7232 5.47955 2.47482ZM1.73353 9.26448C1.73353 8.2314 2.57346 7.39147 3.60654 7.39147H7.58668V5.4453L1.64281 6.67446C1.26235 6.75348 0.890676 6.50764 0.811658 6.13012C0.732641 5.75259 0.978473 5.37799 1.356 5.29897L8.14566 3.89421L14.9353 2.48945C15.3158 2.41044 15.6874 2.65627 15.7665 3.0338C15.8455 3.41133 15.5997 3.78593 15.2221 3.86494L8.99144 5.15264V7.39147H12.9716C14.0047 7.39147 14.8446 8.2314 14.8446 9.26448V13.947C14.8446 14.9801 14.0047 15.82 12.9716 15.82H3.60654C2.57346 15.82 1.73353 14.9801 1.73353 13.947V9.26448ZM3.60654 9.26448C3.349 9.26448 3.13829 9.47519 3.13829 9.73273V11.6057C3.13829 11.8633 3.349 12.074 3.60654 12.074H5.47955C5.73709 12.074 5.9478 11.8633 5.9478 11.6057V9.73273C5.9478 9.47519 5.73709 9.26448 5.47955 9.26448H3.60654ZM6.88431 9.73273V11.6057C6.88431 11.8633 7.09502 12.074 7.35256 12.074H9.22557C9.48311 12.074 9.69382 11.8633 9.69382 11.6057V9.73273C9.69382 9.47519 9.48311 9.26448 9.22557 9.26448H7.35256C7.09502 9.26448 6.88431 9.47519 6.88431 9.73273ZM11.0986 9.26448C10.841 9.26448 10.6303 9.47519 10.6303 9.73273V11.6057C10.6303 11.8633 10.841 12.074 11.0986 12.074H12.9716C13.2291 12.074 13.4398 11.8633 13.4398 11.6057V9.73273C13.4398 9.47519 13.2291 9.26448 12.9716 9.26448H11.0986Z" fill="black"/>
</g>
</g>
<defs>
<clipPath id="clip0_809_3065">
<rect width="16" height="16" fill="white"/>
</clipPath>
<clipPath id="clip1_809_3065">
<rect width="18" height="16" fill="white" transform="translate(-0.710938 0.328125)"/>
</clipPath>
</defs>
</svg>
