<svg width="16" height="16" viewBox="0 0 16 16" fill="none" xmlns="http://www.w3.org/2000/svg">
<path d="M5.5 4.99922C5.5 3.89609 6.39688 2.99922 7.5 2.99922H8.5C9.60312 2.99922 10.5 3.89609 10.5 4.99922V5.11172C10.5 5.79297 10.1531 6.42734 9.58125 6.79297L8.2625 7.63984C7.475 8.14609 7 9.01797 7 9.95234V9.99609C7 10.5492 7.44687 10.9961 8 10.9961C8.55313 10.9961 9 10.5492 9 9.99609V9.95234C9 9.69609 9.13125 9.45859 9.34375 9.32109L10.6625 8.47422C11.8062 7.73672 12.5 6.47109 12.5 5.10859V4.99609C12.5 2.78672 10.7094 0.996094 8.5 0.996094H7.5C5.29063 0.999219 3.5 2.78984 3.5 4.99922C3.5 5.55234 3.94687 5.99922 4.5 5.99922C5.05313 5.99922 5.5 5.55234 5.5 4.99922ZM8 14.9992C8.33152 14.9992 8.64946 14.8675 8.88388 14.6331C9.1183 14.3987 9.25 14.0807 9.25 13.7492C9.25 13.4177 9.1183 13.0998 8.88388 12.8653C8.64946 12.6309 8.33152 12.4992 8 12.4992C7.66848 12.4992 7.35054 12.6309 7.11612 12.8653C6.8817 13.0998 6.75 13.4177 6.75 13.7492C6.75 14.0807 6.8817 14.3987 7.11612 14.6331C7.35054 14.8675 7.66848 14.9992 8 14.9992Z" fill="black"/>
</svg>
